<?xml version="1.0" standalone="no"?>
<!DOCTYPE svg PUBLIC "-//W3C//DTD SVG 20010904//EN"
 "http://www.w3.org/TR/2001/REC-SVG-20010904/DTD/svg10.dtd">
<svg version="1.0" xmlns="http://www.w3.org/2000/svg"
 width="928.000000pt" height="928.000000pt" viewBox="0 0 928.000000 928.000000"
 preserveAspectRatio="xMidYMid meet">
<metadata>
Created by potrace 1.14, written by Peter Selinger 2001-2017
</metadata>
<g transform="translate(0.000000,928.000000) scale(0.100000,-0.100000)"
fill="#000000" stroke="none">
<path d="M1501 6516 c-7 -8 -26 -22 -44 -31 -52 -27 -74 -40 -91 -54 -9 -7
-16 -10 -16 -5 0 5 -5 1 -11 -9 -6 -9 -14 -15 -18 -12 -5 2 -14 -2 -21 -10 -7
-8 -19 -15 -26 -15 -8 0 -14 -5 -14 -11 0 -5 -4 -7 -10 -4 -5 3 -10 2 -10 -4
0 -5 -10 -13 -22 -17 -13 -4 -25 -10 -28 -15 -3 -4 -12 -9 -20 -11 -8 -2 -23
-11 -34 -20 -11 -10 -26 -18 -33 -18 -7 0 -14 -3 -15 -7 -4 -24 -8 -88 -8
-145 0 -16 0 -36 0 -45 -1 -26 -1 -96 -1 -110 1 -11 1 -152 0 -208 0 -11 8
-25 18 -32 10 -7 24 -17 31 -23 6 -6 12 -8 12 -5 0 4 12 -2 28 -13 15 -10 97
-58 182 -107 85 -49 158 -92 161 -98 6 -8 84 29 115 54 6 5 14 6 17 2 4 -3 7
-1 7 4 0 6 20 21 45 33 25 12 45 27 45 33 0 5 3 7 6 4 4 -4 19 1 33 11 35 23
55 35 129 77 71 41 64 11 64 272 0 84 -3 157 -7 163 -3 5 -3 10 2 10 4 0 8 26
7 57 0 53 -3 58 -34 80 -19 12 -40 23 -47 23 -7 0 -13 5 -13 10 0 6 -9 10 -20
10 -11 0 -20 5 -20 10 0 6 -6 10 -13 10 -7 0 -23 9 -35 20 -12 11 -28 20 -37
20 -8 0 -15 4 -15 8 0 5 -15 16 -32 25 -18 9 -55 30 -83 47 -27 16 -58 33 -67
36 -10 4 -18 10 -18 15 0 14 -26 11 -39 -5z m-196 -271 c-16 -13 -41 -30 -55
-37 -24 -12 -26 -18 -27 -88 -1 -41 -4 -95 -7 -120 -2 -25 -5 -50 -5 -56 -1
-6 -7 -11 -14 -11 -10 0 -13 31 -12 136 l0 135 65 33 c76 39 96 42 55 8z"/>
<path d="M2579 6522 c-1 -4 -1 -11 0 -15 1 -5 -3 -6 -8 -2 -10 6 -42 -9 -73
-33 -20 -16 -69 -45 -118 -70 -19 -9 -39 -22 -45 -28 -5 -6 -31 -22 -57 -34
-27 -13 -48 -26 -48 -30 0 -3 -18 -14 -41 -24 -31 -14 -40 -23 -36 -37 3 -11
0 -19 -6 -19 -7 0 -5 -5 3 -10 8 -5 10 -10 4 -10 -7 0 -10 -12 -7 -27 2 -16 4
-34 4 -40 -1 -38 -1 -183 -1 -289 l0 -120 35 -14 c19 -8 35 -17 35 -20 0 -3
16 -12 35 -20 19 -8 35 -17 35 -22 0 -4 7 -8 15 -8 8 0 15 -5 15 -12 0 -6 3
-9 6 -5 3 3 52 -23 109 -58 57 -35 106 -61 109 -57 3 3 6 1 6 -5 0 -5 12 -15
26 -22 22 -9 29 -8 51 9 14 11 31 20 39 20 7 0 14 5 16 11 2 5 11 11 20 13 9
1 25 9 35 18 10 8 74 48 143 87 173 100 160 87 163 170 1 39 0 71 -3 71 -3 0
-5 16 -5 35 0 19 3 35 6 35 6 0 3 59 -4 66 -3 3 -2 18 3 33 4 16 4 34 0 42 -5
7 -6 18 -3 23 7 10 7 100 1 126 -4 20 -84 72 -215 140 -26 14 -49 28 -51 33
-2 4 -8 7 -13 7 -6 0 -36 17 -67 38 -64 42 -111 65 -113 54z m7 -173 c-14 -11
-33 -27 -40 -35 -8 -8 -19 -14 -23 -14 -5 0 -19 -9 -32 -21 -12 -12 -25 -18
-28 -15 -4 3 -12 -3 -20 -14 -8 -11 -21 -20 -30 -20 -9 0 -25 -10 -37 -23 -12
-13 -27 -22 -33 -20 -6 2 -18 -4 -27 -13 -12 -11 -21 -13 -27 -7 -7 7 0 18 23
34 18 13 35 27 36 31 2 4 10 8 18 8 8 0 14 4 14 10 0 5 18 19 40 30 22 11 40
26 40 32 0 6 3 9 6 6 3 -3 35 9 71 28 71 36 93 38 49 3z"/>
<path d="M4340 5218 c0 -541 0 -548 20 -549 11 -1 29 -1 40 -1 53 0 50 -36 52
495 l3 492 125 0 c130 1 226 -9 245 -25 7 -6 15 -7 18 -3 4 3 7 1 7 -5 0 -7 6
-12 14 -12 17 0 61 -53 88 -105 58 -111 -7 -265 -132 -315 -46 -19 -50 -20
-155 -25 -49 -2 -94 -4 -98 -4 -5 -1 -2 -7 5 -15 7 -8 22 -26 33 -42 11 -15
30 -40 43 -55 12 -15 22 -31 22 -37 0 -6 4 -12 8 -14 5 -1 63 -76 130 -165 68
-90 128 -163 135 -164 53 -5 117 -3 117 4 0 10 -91 131 -102 135 -4 2 -8 8 -8
14 0 5 -19 33 -42 62 -24 29 -52 65 -63 80 -11 15 -32 44 -47 63 -32 41 -35
55 -10 52 25 -3 112 22 112 32 0 5 4 8 8 6 19 -5 84 52 118 105 20 31 36 59
36 62 -1 3 5 23 12 43 21 64 9 168 -29 243 -51 101 -146 166 -270 186 -22 3
-129 7 -238 8 l-197 1 0 -547z"/>
<path d="M5620 5760 c-8 -5 -52 -95 -55 -110 0 -3 -8 -21 -17 -40 -9 -19 -33
-75 -54 -125 -20 -49 -39 -94 -42 -100 -4 -5 -7 -12 -7 -15 -1 -3 -11 -28 -24
-57 -13 -29 -22 -53 -21 -55 1 -2 -10 -25 -24 -52 -14 -27 -26 -53 -26 -58 0
-5 -13 -36 -29 -68 -16 -32 -27 -61 -23 -64 3 -3 -1 -6 -8 -6 -7 0 -10 -3 -7
-6 4 -4 0 -19 -7 -33 -8 -14 -22 -44 -31 -66 -18 -44 -22 -52 -59 -137 -14
-32 -28 -68 -31 -80 -6 -22 -3 -23 47 -23 l53 1 32 62 c18 34 33 66 34 70 2
11 26 68 63 152 l33 75 257 3 257 2 18 -42 c10 -24 28 -64 40 -90 11 -26 21
-49 21 -52 0 -5 27 -67 66 -151 13 -28 18 -30 61 -28 27 1 52 2 56 2 11 1 1
31 -39 119 -19 41 -34 80 -34 87 0 7 -6 20 -12 27 -7 7 -19 31 -27 53 -8 22
-24 63 -36 90 -65 144 -95 217 -95 230 0 8 -4 15 -8 15 -5 0 -15 19 -22 43 -8
23 -17 47 -20 52 -4 6 -24 51 -44 100 -21 50 -46 108 -56 130 -10 22 -28 64
-40 93 -12 28 -28 52 -34 53 -56 4 -99 3 -106 -1z m80 -180 c3 -3 6 -9 7 -15
1 -5 38 -98 83 -205 45 -107 83 -201 85 -210 3 -14 -21 -16 -201 -15 -178 0
-204 2 -204 15 0 9 5 21 11 27 6 6 12 17 13 24 3 16 13 39 49 121 14 31 23 59
19 62 -3 3 -1 6 5 6 6 0 14 11 17 25 4 14 17 49 30 78 13 28 32 72 42 96 17
42 18 43 28 20 6 -13 13 -26 16 -29z"/>
<path d="M6240 5762 c0 -8 31 -128 37 -142 3 -8 8 -24 10 -35 6 -28 9 -38 16
-55 6 -14 114 -399 121 -430 2 -8 18 -63 35 -121 17 -58 32 -114 34 -125 1
-10 6 -24 9 -30 4 -6 9 -22 12 -37 2 -15 7 -30 10 -35 3 -5 7 -21 10 -36 9
-51 14 -53 150 -47 11 1 17 3 14 7 -3 3 1 26 9 52 8 26 16 54 18 62 1 8 10 42
19 75 17 61 22 82 30 123 3 12 7 26 10 30 3 5 7 19 10 33 3 13 13 51 22 84 9
33 18 67 20 75 2 8 15 58 30 110 29 107 29 108 44 170 15 60 26 68 35 28 4
-18 9 -37 11 -43 19 -66 41 -155 37 -155 -3 0 0 -6 6 -13 6 -8 13 -31 17 -53
3 -21 8 -42 11 -46 2 -5 6 -16 8 -25 2 -10 13 -53 24 -95 12 -42 23 -85 24
-95 2 -10 6 -25 9 -33 3 -8 13 -46 23 -85 9 -38 19 -77 23 -85 3 -8 6 -17 6
-20 11 -50 31 -100 40 -101 6 -1 38 -1 71 -2 l59 0 33 109 c18 60 34 118 37
129 2 11 12 47 22 80 21 70 25 84 28 106 1 8 7 28 14 45 9 25 30 96 38 129 1
6 9 36 19 69 9 32 18 64 19 70 1 6 4 16 7 21 4 6 12 35 20 65 7 30 14 57 14
60 1 3 4 12 8 20 3 8 14 44 23 80 9 36 21 73 26 83 13 25 -14 33 -94 28 -10
-1 -19 -13 -23 -33 -4 -18 -12 -39 -17 -45 -6 -7 -8 -19 -5 -27 3 -7 2 -17 -3
-22 -5 -5 -11 -20 -14 -34 -3 -14 -14 -59 -26 -100 -12 -41 -24 -86 -26 -99
-3 -14 -8 -29 -12 -35 -3 -6 -7 -15 -8 -21 -2 -15 -35 -138 -41 -155 -4 -8 -7
-19 -8 -25 -2 -5 -8 -30 -16 -55 -7 -25 -13 -50 -15 -57 -1 -7 -9 -34 -17 -60
-8 -26 -23 -76 -33 -110 -10 -35 -19 -61 -20 -60 -3 2 -20 64 -39 137 -2 8
-16 58 -30 110 -15 52 -29 104 -31 115 -11 45 -13 50 -14 50 -1 0 -3 7 -5 16
-1 9 -15 57 -29 107 -14 50 -27 99 -29 109 -2 10 -6 25 -9 33 -6 15 -52 180
-53 190 -5 29 -18 70 -23 71 -39 5 -95 2 -100 -6 -6 -9 -68 -217 -77 -260 -3
-11 -12 -45 -20 -75 -9 -30 -20 -71 -25 -90 -6 -29 -31 -119 -104 -375 -1 -5
-8 -36 -16 -67 -7 -32 -16 -58 -20 -58 -4 0 -17 37 -30 83 -12 45 -26 93 -31
107 -5 14 -11 34 -13 45 -2 11 -10 40 -17 65 -7 25 -14 50 -15 55 -1 6 -24 84
-49 175 -26 91 -49 172 -50 180 -2 8 -4 15 -5 15 -1 0 -3 9 -5 19 -2 10 -10
40 -18 65 -20 64 -31 105 -29 114 2 8 2 8 -65 11 -29 0 -53 -1 -53 -2z"/>
<path d="M2020 5596 c0 -5 -3 -7 -6 -3 -4 3 -12 1 -20 -6 -32 -29 -44 -37 -44
-32 0 3 -20 -8 -44 -25 -25 -16 -49 -30 -55 -30 -6 0 -11 -4 -11 -10 0 -5 -5
-10 -11 -10 -13 0 -153 -82 -157 -92 -2 -5 -10 -8 -17 -8 -7 0 -19 -10 -27
-22 -11 -19 -14 -103 -13 -475 0 -249 -2 -453 -5 -453 -3 0 -6 -12 -7 -26 0
-15 -5 -29 -11 -33 -10 -6 -44 -81 -37 -81 3 0 0 -12 -6 -27 -14 -37 -18 -83
-6 -83 5 0 7 -7 3 -15 -3 -8 -1 -15 4 -15 6 0 9 -4 7 -8 -4 -14 52 -73 73 -77
24 -5 80 43 80 67 0 8 4 18 10 24 16 16 13 95 -4 106 -8 6 -8 8 1 8 13 0 -5
60 -22 72 -5 4 -6 8 -2 8 4 0 2 10 -5 23 -7 12 -13 25 -14 30 -1 4 -3 8 -4 10
-1 1 -4 68 -5 149 -2 120 0 148 12 152 8 3 12 10 9 15 -3 5 6 13 22 18 28 10
80 -6 116 -36 9 -7 16 -10 16 -5 0 5 4 4 8 -2 7 -11 39 -31 125 -78 22 -11 44
-30 50 -41 7 -12 11 -91 12 -205 0 -102 4 -190 7 -196 4 -6 4 -14 1 -18 -4 -4
-8 -16 -10 -27 -2 -12 -17 -47 -34 -78 -17 -31 -31 -57 -30 -58 1 -2 1 -4 0
-5 -13 -44 -18 -127 -8 -134 5 -3 9 -15 9 -28 0 -43 88 -114 106 -85 3 5 9 7
13 4 8 -4 60 41 62 54 0 3 3 15 6 26 16 63 10 125 -19 196 -16 41 -33 76 -37
79 -9 5 -9 476 -1 482 54 45 108 54 138 24 14 -14 34 -76 24 -76 -4 0 -6 -47
-4 -104 3 -96 1 -109 -24 -161 -31 -67 -38 -149 -16 -194 8 -17 18 -29 22 -26
4 3 10 -2 14 -10 3 -8 15 -14 28 -12 20 2 31 10 67 53 13 16 7 157 -7 162 -7
2 -10 8 -6 13 3 5 0 9 -7 9 -7 0 -9 3 -6 7 4 3 1 13 -6 21 -16 20 -20 391 -3
413 25 34 60 48 96 39 19 -4 31 -8 27 -9 -5 -1 -1 -8 8 -18 12 -12 16 -29 13
-65 -1 -26 0 -48 4 -48 3 0 -9 -30 -27 -68 -27 -54 -33 -77 -30 -117 5 -84 26
-114 80 -114 40 0 64 20 80 65 16 48 11 94 -17 147 -12 23 -21 45 -20 50 1 4
-2 7 -7 7 -5 0 -9 87 -10 198 -1 316 -8 556 -16 574 -6 16 -65 55 -154 103
-20 11 -50 29 -66 39 -17 11 -55 33 -85 49 -30 16 -57 33 -60 36 -16 22 -110
37 -110 17z m-81 -196 c-13 -11 -30 -24 -36 -30 -7 -6 -13 -8 -13 -5 0 3 -10
-3 -22 -15 -12 -11 -28 -20 -35 -20 -7 0 -13 -5 -13 -11 0 -5 -4 -8 -8 -5 -5
3 -19 -4 -30 -15 -12 -11 -22 -16 -22 -12 -1 4 -6 -2 -13 -15 -7 -12 -12 -38
-12 -57 1 -19 -2 -35 -7 -35 -4 0 -8 3 -8 8 0 4 -3 30 -6 59 l-6 51 43 28 c54
34 179 93 198 94 9 0 5 -8 -10 -20z m600 -904 c17 -21 19 -86 2 -86 -8 0 -12
15 -27 88 -3 16 11 15 25 -2z m-843 -303 c-1 -20 -12 -42 -30 -59 -25 -25 -29
-27 -39 -13 -7 9 -18 14 -26 11 -8 -3 -11 0 -7 7 4 6 2 11 -5 11 -6 0 -9 8 -6
20 3 10 0 21 -7 23 -6 2 2 4 18 4 23 0 26 -1 13 -9 -10 -5 -17 -14 -17 -19 0
-6 5 -7 12 -3 6 4 8 3 4 -4 -3 -6 2 -12 11 -14 21 -4 57 28 48 42 -4 6 -1 10
4 10 6 0 10 3 10 8 -1 4 -1 16 0 27 3 34 18 -5 17 -42z m432 -260 c-1 -5 2
-21 7 -37 9 -33 -18 -96 -42 -96 -7 0 -13 -4 -13 -8 0 -5 -6 -9 -14 -9 -8 0
-12 6 -9 14 3 7 9 13 14 13 14 0 39 57 39 88 0 16 3 32 7 35 8 9 13 9 11 0z"/>
<path d="M3539 5360 c-3 -15 -7 -66 -13 -155 -4 -55 -9 -127 -12 -160 -2 -33
-6 -94 -8 -135 -7 -111 -17 -224 -22 -231 -5 -9 60 -16 78 -9 7 3 14 23 15 45
2 22 5 74 7 115 3 41 8 129 12 195 4 66 7 143 7 172 1 28 5 49 9 47 4 -3 8
-11 8 -18 0 -16 46 -166 67 -221 9 -22 19 -53 23 -70 5 -16 24 -74 43 -127 19
-53 33 -99 31 -101 -9 -9 31 -32 57 -33 28 -1 31 1 33 29 1 6 4 14 7 17 3 3
21 46 39 95 64 177 132 371 145 410 l13 40 1 -35 c1 -19 4 -82 6 -140 4 -121
16 -346 20 -375 1 -11 3 -27 4 -36 1 -11 11 -15 36 -14 19 1 38 5 42 8 6 6 5
66 -2 152 -1 22 -6 90 -9 150 -4 61 -10 146 -13 190 -3 44 -6 100 -8 125 -1
25 -3 51 -4 58 -1 8 -19 12 -56 12 -50 0 -56 -2 -70 -30 -8 -16 -15 -32 -15
-35 -1 -5 -3 -15 -16 -52 -3 -10 -5 -19 -4 -21 0 -1 -7 -16 -16 -33 -8 -17
-17 -38 -19 -47 -2 -10 -20 -60 -39 -112 -19 -52 -42 -121 -51 -152 -20 -71
-32 -80 -41 -31 -4 21 -13 56 -21 78 -8 22 -16 47 -18 55 -2 8 -9 29 -16 45
-6 17 -13 37 -15 46 -2 9 -9 29 -15 45 -7 16 -13 34 -15 39 -1 6 -18 53 -37
105 l-34 95 -57 5 c-31 3 -56 3 -57 0z"/>
<path d="M2679 5355 c-1 -3 -1 -14 -1 -25 0 -47 -2 -46 98 -45 53 0 99 -2 104
-5 5 -3 8 -141 7 -308 -1 -166 1 -302 6 -303 9 -1 53 -1 71 0 13 1 15 47 15
302 -1 200 3 304 10 308 6 4 53 6 106 5 l95 -1 0 38 0 39 -255 0 c-140 0 -255
-2 -256 -5z"/>
<path d="M3270 5016 c0 -380 -4 -357 63 -348 25 4 35 25 28 65 -2 12 -3 110
-1 162 0 8 0 22 0 30 0 8 0 22 0 30 0 8 0 22 0 30 0 8 0 22 0 30 0 8 0 22 0
30 0 8 0 21 -1 28 0 6 1 69 2 138 1 70 -1 131 -5 138 -4 6 -25 11 -47 11 l-39
0 0 -344z"/>
<path d="M4150 4537 c-3 -3 -18 -7 -35 -10 -135 -24 -266 -113 -352 -238 -34
-49 -73 -131 -73 -152 0 -7 -3 -17 -7 -20 -13 -14 -20 -174 -10 -232 13 -71
19 -92 39 -135 32 -70 132 -200 153 -200 3 0 16 -11 29 -23 35 -36 149 -87
229 -104 87 -18 210 -13 302 13 26 8 132 61 152 77 52 40 144 139 171 185 18
28 29 52 26 52 -4 0 -2 6 3 13 33 40 57 239 38 307 -2 8 -6 26 -9 40 -33 180
-223 368 -421 417 -30 7 -229 16 -235 10z m214 -117 c44 -9 105 -37 145 -65 8
-5 40 -35 72 -66 126 -123 162 -288 102 -471 -8 -27 -19 -48 -24 -48 -5 0 -9
-8 -9 -18 0 -10 -28 -48 -63 -84 -132 -139 -290 -180 -492 -127 -141 38 -273
185 -312 349 -13 57 -1 188 23 245 8 19 14 37 13 41 0 3 12 22 27 42 133 180
305 247 518 202z"/>
<path d="M2710 4520 c-4 -3 -7 -250 -6 -550 l1 -545 53 -1 c46 0 52 2 53 20 1
12 1 122 1 246 0 124 4 230 8 235 6 8 466 13 548 6 10 -1 13 -44 12 -198 0
-109 -1 -223 0 -254 l0 -57 48 3 c26 2 50 3 55 4 4 0 7 246 7 545 l0 544 -27
3 c-16 2 -40 3 -55 1 l-28 -3 0 -239 0 -239 -283 1 -284 0 0 202 c-1 110 -2
219 -2 241 l-1 40 -46 0 c-25 0 -49 -2 -54 -5z"/>
<path d="M5055 4523 c-11 -2 -29 -6 -40 -8 -21 -4 -21 35 -15 -1016 l0 -75 53
1 52 1 5 475 5 474 20 -32 c11 -18 23 -33 28 -33 4 0 7 -7 7 -15 0 -8 3 -15 8
-15 4 0 12 -9 17 -20 6 -11 42 -66 81 -123 38 -56 113 -165 164 -242 52 -77
98 -141 102 -143 5 -2 8 -8 8 -13 0 -9 36 -65 50 -79 3 -3 10 -12 15 -21 6 -9
37 -56 70 -105 33 -48 63 -92 67 -98 3 -5 32 -10 62 -11 l56 -2 0 548 0 547
-46 4 c-53 4 -63 0 -63 -27 1 -11 0 -48 -1 -83 -1 -35 0 -66 3 -69 3 -3 2 -15
-3 -28 -5 -13 -6 -26 -3 -29 7 -7 7 -182 -1 -194 -2 -4 -1 -14 4 -21 4 -8 4
-26 0 -41 -4 -15 -4 -33 0 -40 4 -7 4 -26 0 -41 -5 -16 -5 -31 0 -34 4 -3 4
-21 0 -40 -4 -19 -4 -37 0 -40 5 -3 5 -18 1 -33 -5 -15 -5 -36 -1 -47 4 -11 5
-24 3 -29 -3 -4 -5 -28 -5 -52 1 -24 -3 -44 -8 -44 -6 0 -10 6 -10 14 0 8 -4
16 -8 18 -4 2 -30 37 -57 78 -28 41 -52 77 -55 80 -15 15 -50 71 -50 80 0 5
-4 10 -10 10 -5 0 -10 6 -10 14 0 8 -4 16 -8 18 -7 3 -43 55 -243 353 -51 77
-99 146 -106 153 -7 7 -13 16 -13 20 -2 33 -72 63 -125 55z"/>
<path d="M6144 4522 l-51 -3 1 -547 1 -547 297 0 296 0 4 43 c2 24 1 47 -2 52
-3 5 -114 10 -246 11 l-241 1 1 187 1 186 235 5 234 5 1 40 c1 22 0 45 -3 51
-2 8 -63 12 -200 12 -108 0 -213 1 -232 1 l-36 1 0 195 c0 128 4 195 11 196 5
1 109 2 230 4 121 1 227 3 235 4 12 1 14 12 12 51 -2 27 -7 50 -10 51 -32 2
-499 3 -538 1z"/>
<path d="M6818 4522 c-21 -2 -38 -4 -38 -6 0 -5 158 -311 306 -591 l68 -130 2
-200 c2 -110 6 -234 9 -275 13 -143 7 -285 -13 -299 -15 -11 -63 -124 -69
-165 -17 -109 10 -208 64 -237 13 -7 23 -16 23 -20 0 -18 93 3 116 26 16 15
46 75 38 75 -4 0 -2 6 3 13 6 6 9 20 8 29 -2 10 1 20 6 24 5 3 7 9 5 13 -3 4
-7 29 -11 55 -3 26 -9 55 -14 64 -5 10 -9 21 -9 25 0 4 -15 38 -33 75 -29 59
-32 76 -32 147 1 80 11 183 20 198 3 5 4 50 3 100 -1 51 -2 151 -2 223 l0 132
39 73 c21 41 40 76 43 79 3 3 24 43 48 90 88 175 187 365 192 370 11 11 50
102 46 108 -2 4 -28 6 -58 4 l-53 -4 -95 -186 c-51 -103 -100 -195 -108 -204
-8 -10 -12 -18 -9 -18 3 0 -9 -26 -26 -57 -18 -32 -41 -77 -51 -100 -10 -23
-22 -40 -27 -38 -4 3 -42 74 -85 158 -253 500 -223 456 -306 449z m472 -1717
c0 -8 4 -15 9 -15 5 0 5 -20 0 -47 -10 -49 -37 -88 -70 -96 -30 -8 -32 9 -4
31 14 11 25 27 25 35 0 9 5 19 11 22 6 4 10 19 9 33 -1 15 -2 33 -1 40 1 17
21 15 21 -3z"/>
</g>
</svg>
